<?xml version="1.0" encoding="utf-8" ?>
<svg baseProfile="full" height="1088" version="1.1" viewBox="0,0,1088,1088" width="1088" xmlns="http://www.w3.org/2000/svg" xmlns:ev="http://www.w3.org/2001/xml-events" xmlns:xlink="http://www.w3.org/1999/xlink"><defs /><path d="M 505 387 L 476 412 L 458 441 L 450 469 L 449 502 L 457 535 L 480 582 L 528 575 L 480 595 L 466 639 L 505 635 L 462 648 L 459 654 L 502 645 L 543 622 L 551 589 L 542 572 L 542 558 L 552 542 L 571 538 L 582 547 L 587 566 L 565 548 L 555 554 L 552 571 L 565 590 L 574 592 L 576 578 L 568 565 L 574 557 L 578 559 L 585 579 L 578 614 L 583 635 L 710 718 L 688 576 L 645 540 L 707 492 L 743 525 L 701 405 L 692 395 L 665 393 L 635 376 L 601 367 L 549 369 Z" fill="#ffffff" stroke="none" /><path d="M 560 598 L 552 628 L 535 642 L 487 661 L 479 681 L 465 698 L 506 717 L 554 759 L 622 782 L 646 785 L 659 782 L 668 767 L 672 775 L 671 785 L 664 792 L 652 796 L 621 793 L 568 776 L 597 816 L 599 831 L 616 862 L 632 906 L 677 901 L 712 889 L 733 875 L 746 859 L 730 815 L 716 795 L 697 777 L 631 734 L 638 701 L 648 691 L 575 642 L 566 621 L 570 603 Z" fill="#ffffff" stroke="none" /><path d="M 307 812 L 335 830 L 375 850 L 421 868 L 462 881 L 466 879 L 480 857 L 484 854 L 485 858 L 480 886 L 535 898 L 568 902 L 562 880 L 553 859 L 535 858 L 519 850 L 507 837 L 488 810 L 472 793 L 445 772 L 419 759 L 398 754 L 377 754 L 355 761 L 339 771 L 328 781 L 316 796 Z" fill="#ffffff" stroke="none" /><path d="M 686 341 L 643 328 L 610 324 L 586 324 L 540 332 L 518 340 L 492 354 L 477 365 L 455 388 L 434 424 L 427 446 L 423 472 L 425 514 L 438 509 L 439 464 L 452 427 L 470 402 L 495 380 L 523 365 L 563 355 L 598 355 L 616 358 L 643 367 L 665 379 Z" fill="#ffffff" stroke="none" /><path d="M 383 717 L 401 717 L 423 721 L 445 729 L 464 739 L 491 759 L 516 784 L 540 817 L 549 834 L 555 840 L 568 846 L 578 845 L 585 840 L 587 836 L 588 825 L 581 810 L 547 767 L 526 746 L 504 729 L 472 712 L 439 703 L 411 704 L 399 708 Z" fill="#ffffff" stroke="none" /><path d="M 705 504 L 662 540 L 699 571 L 706 641 L 717 699 L 736 710 L 719 649 L 719 644 L 726 636 L 726 632 L 722 627 L 711 625 L 710 623 L 714 620 L 728 617 L 730 613 L 726 607 L 726 599 L 730 596 L 749 592 L 751 590 L 751 585 L 743 573 L 724 533 L 724 517 L 711 506 Z" fill="#ffffff" stroke="none" /><path d="M 300 798 L 300 802 L 312 783 L 329 765 L 346 753 L 373 743 L 403 743 L 434 753 L 458 767 L 490 796 L 516 831 L 527 842 L 540 848 L 548 848 L 541 841 L 528 818 L 512 796 L 485 768 L 452 745 L 416 731 L 395 728 L 372 729 L 353 734 L 341 740 L 330 748 L 314 766 L 305 783 Z" fill="#ffffff" stroke="none" /><path d="M 564 856 L 564 857 L 565 858 L 565 860 L 566 861 L 566 862 L 568 865 L 568 867 L 570 870 L 571 875 L 573 878 L 573 880 L 574 881 L 574 883 L 575 884 L 575 886 L 576 887 L 576 889 L 577 890 L 577 892 L 578 893 L 578 896 L 579 897 L 579 899 L 580 900 L 580 903 L 581 904 L 587 904 L 588 905 L 603 905 L 604 906 L 620 906 L 620 904 L 619 903 L 619 901 L 618 900 L 618 898 L 617 897 L 617 895 L 616 894 L 616 892 L 615 891 L 614 886 L 613 885 L 613 884 L 612 883 L 612 881 L 610 878 L 610 876 L 606 869 L 606 867 L 605 866 L 605 865 L 604 864 L 604 863 L 603 862 L 603 861 L 602 860 L 602 859 L 601 858 L 601 857 L 600 856 L 600 855 L 599 854 L 595 845 L 594 845 L 593 846 L 593 847 L 589 851 L 588 851 L 586 853 L 585 853 L 580 856 L 577 856 L 576 857 L 566 857 L 565 856 Z" fill="#ffffff" stroke="none" /><path d="M 710 351 L 709 351 L 708 350 L 707 350 L 706 349 L 705 349 L 704 348 L 703 348 L 702 347 L 701 347 L 700 346 L 699 346 L 698 345 L 696 345 L 695 344 L 693 346 L 693 347 L 692 348 L 692 349 L 691 350 L 691 351 L 690 352 L 690 353 L 689 354 L 689 355 L 687 357 L 687 358 L 686 359 L 686 360 L 685 361 L 685 362 L 684 363 L 684 364 L 683 365 L 683 366 L 682 367 L 682 368 L 681 369 L 681 370 L 680 371 L 680 372 L 679 373 L 679 374 L 678 375 L 678 376 L 677 377 L 677 378 L 676 379 L 676 380 L 675 381 L 675 382 L 677 382 L 678 383 L 685 383 L 686 384 L 691 384 L 691 383 L 692 382 L 692 380 L 693 379 L 693 378 L 695 376 L 695 375 L 696 374 L 696 373 L 697 372 L 697 371 L 698 370 L 698 369 L 699 368 L 699 367 L 701 365 L 701 364 L 702 363 L 702 362 L 705 359 L 705 358 L 707 356 L 707 355 L 708 354 L 708 353 Z" fill="#ffffff" stroke="none" /><path d="M 794 268 L 729 236 L 633 216 L 619 255 L 621 215 L 517 230 L 522 265 L 504 234 L 419 287 L 443 318 L 410 295 L 372 343 L 349 393 L 337 472 L 382 456 L 336 488 L 344 576 L 341 638 L 324 677 L 292 704 L 321 704 L 352 689 L 373 668 L 391 632 L 401 549 L 415 522 L 412 501 L 379 533 L 365 586 L 364 554 L 381 514 L 412 489 L 416 444 L 433 402 L 400 382 L 439 392 L 484 346 L 544 319 L 584 313 L 639 317 L 658 283 L 651 319 L 691 331 L 728 290 L 701 333 L 716 341 Z" fill="#e23a38" stroke="none" /><path d="M 0 0 L 0 1087 L 1087 1087 L 1087 0 Z" fill="#000000" stroke="none" /></svg>